<svg width="129" height="28" viewBox="0 0 129 28" fill="none" xmlns="http://www.w3.org/2000/svg">
<g clip-path="url(#clip0)">
<path d="M129 0H0V28H129V0Z" stroke="#121D2E"/>
<path fill-rule="evenodd" clip-rule="evenodd" d="M60.911 22.3H65.518V20.224H63.563V8.45999H65.518V6.38599H60.911V22.3ZM70.482 19H73.236V9.34399H77.044V7.09999H66.674V9.34399H70.482V19ZM86.87 14.461C86.8893 13.5848 86.6753 12.7193 86.25 11.953C85.8505 11.2496 85.2573 10.6758 84.541 10.3C83.7767 9.91565 82.9323 9.71765 82.0769 9.72217C81.2214 9.72668 80.3792 9.9336 79.619 10.326C78.8923 10.7121 78.2863 11.2914 77.868 12C77.439 12.7342 77.2184 13.5716 77.23 14.422C77.2159 15.2765 77.4396 16.1182 77.876 16.853C78.3154 17.575 78.9526 18.1559 79.712 18.527C80.5638 18.9413 81.502 19.147 82.449 19.127C83.1483 19.1747 83.8494 19.0668 84.502 18.8111C85.1546 18.5553 85.7423 18.1581 86.223 17.648L84.812 16.118C84.5181 16.409 84.1684 16.6375 83.784 16.79C83.3783 16.938 82.9488 17.0099 82.517 17.002C81.9015 17.0242 81.2947 16.8517 80.783 16.509C80.326 16.1922 80.0093 15.711 79.899 15.166H86.818C86.852 14.724 86.869 14.486 86.869 14.452L86.87 14.461ZM82.127 11.724C82.6735 11.7074 83.2071 11.8917 83.627 12.242C84.0393 12.5955 84.3058 13.0893 84.375 13.628H79.866C79.9311 13.0858 80.1982 12.588 80.614 12.234C81.0406 11.8875 81.5777 11.7064 82.127 11.724ZM92.227 19.136C93.0159 19.153 93.8016 19.0291 94.547 18.77C95.1298 18.5745 95.6453 18.2181 96.034 17.742C96.3706 17.3101 96.5505 16.7766 96.544 16.229C96.5779 15.659 96.389 15.0982 96.017 14.665C95.6803 14.3004 95.2516 14.0334 94.776 13.892C94.1725 13.7221 93.5594 13.5885 92.94 13.492C92.4438 13.4296 91.9543 13.3215 91.478 13.169C91.3449 13.1356 91.2271 13.0581 91.1438 12.9491C91.0604 12.8401 91.0164 12.7061 91.019 12.569C91.025 12.4373 91.0681 12.31 91.1433 12.2017C91.2185 12.0935 91.3227 12.0086 91.444 11.957C91.8431 11.7745 92.2809 11.6928 92.719 11.719C93.6417 11.7115 94.5502 11.9459 95.354 12.399L96.238 10.512C95.7421 10.2343 95.2055 10.0365 94.648 9.92599C94.0143 9.78492 93.3672 9.7135 92.718 9.71299C91.945 9.69615 91.1757 9.82296 90.449 10.087C89.8725 10.2898 89.3655 10.6522 88.987 11.132C88.6543 11.5754 88.4784 12.1167 88.487 12.671C88.4482 13.2539 88.6404 13.8287 89.022 14.271C89.368 14.6383 89.8046 14.908 90.288 15.053C90.8958 15.2263 91.515 15.357 92.141 15.444C92.6202 15.4902 93.0932 15.5871 93.552 15.733C93.68 15.7621 93.7947 15.8331 93.8778 15.9347C93.9609 16.0363 94.0078 16.1627 94.011 16.294C94.011 16.8493 93.45 17.127 92.328 17.127C91.7527 17.1243 91.1805 17.0415 90.628 16.881C90.1066 16.7413 89.6084 16.5264 89.149 16.243L88.265 18.143C88.8009 18.473 89.3869 18.7138 90 18.856C90.7275 19.0435 91.4758 19.1379 92.227 19.137V19.136ZM103.872 16.688C103.564 16.9194 103.186 17.0393 102.801 17.028C102.646 17.0379 102.492 17.015 102.346 16.9609C102.201 16.9068 102.069 16.8226 101.959 16.714C101.746 16.4668 101.639 16.1464 101.659 15.821V12.1H103.937V10.06H101.66V7.83099H99.008V10.058H97.6V12.1H99.011V15.857C98.9792 16.3038 99.0419 16.7523 99.1951 17.1733C99.3483 17.5942 99.5885 17.9781 99.9 18.3C100.603 18.8932 101.507 19.1917 102.425 19.133C102.829 19.1348 103.233 19.086 103.625 18.988C103.97 18.9076 104.297 18.7605 104.586 18.555L103.872 16.688ZM105.826 20.53H114.326V19H105.826V20.53ZM120.24 22.3V6.38599H115.65V8.45999H117.588V20.224H115.65V22.3H120.24Z" fill="#121D2E"/>
<path fill-rule="evenodd" clip-rule="evenodd" d="M0 0H46.281L53.995 14.56L46.281 28H0V0Z" fill="#121D2E"/>
<path fill-rule="evenodd" clip-rule="evenodd" d="M16.062 7.0999H10.911V18.9999H13.665V15.7189H16.065C17.0066 15.7412 17.9422 15.5647 18.811 15.2009C19.5432 14.8893 20.166 14.3668 20.6 13.6999C21.0284 13.0157 21.2471 12.221 21.229 11.4139C21.2487 10.605 21.03 9.80828 20.6 9.1229C20.1614 8.45875 19.5381 7.93736 18.807 7.6229C17.9397 7.25506 17.0038 7.07674 16.062 7.0999ZM15.909 13.4749H13.665V9.3439H15.909C16.5826 9.2964 17.2515 9.48602 17.8 9.8799C18.0185 10.0695 18.1904 10.3068 18.3024 10.5735C18.4144 10.8403 18.4636 11.1292 18.446 11.4179C18.4626 11.7042 18.4129 11.9904 18.3009 12.2544C18.1888 12.5184 18.0174 12.7529 17.8 12.9399C17.2525 13.3325 16.5851 13.5217 15.913 13.4749H15.909ZM26.041 11.0609V9.8539H23.508V18.9999H26.16V14.6819C26.1334 14.3361 26.177 13.9885 26.288 13.66C26.399 13.3315 26.5752 13.0287 26.806 12.7699C27.0456 12.5494 27.3271 12.3793 27.6338 12.2697C27.9404 12.1602 28.2659 12.1133 28.591 12.1319C28.693 12.1319 28.8913 12.1432 29.186 12.1659V9.7179C28.5492 9.70569 27.9164 9.8213 27.325 10.0579C26.812 10.2644 26.3675 10.6109 26.042 11.0579L26.041 11.0609ZM35.541 19.1359C36.4387 19.1524 37.3265 18.9463 38.125 18.5359C38.8632 18.1535 39.4811 17.5741 39.91 16.8619C40.3463 16.127 40.57 15.2854 40.556 14.4309C40.5708 13.5767 40.3482 12.7351 39.913 11.9999C39.4841 11.2877 38.8662 10.7083 38.128 10.3259C37.323 9.92898 36.4375 9.72253 35.54 9.72253C34.6425 9.72253 33.757 9.92898 32.952 10.3259C32.2101 10.7063 31.5888 11.286 31.158 11.9999C30.7216 12.7347 30.498 13.5764 30.512 14.4309C30.4979 15.2854 30.7216 16.1271 31.158 16.8619C31.5888 17.5758 32.21 18.1555 32.952 18.5359C33.7536 18.9457 34.6438 19.1517 35.544 19.1359H35.541ZM35.541 16.9599C35.2279 16.9694 34.9162 16.9129 34.6263 16.7942C34.3364 16.6755 34.0746 16.4972 33.858 16.2709C33.6312 16.0225 33.4559 15.7317 33.3421 15.4152C33.2283 15.0987 33.1783 14.7628 33.195 14.4269C33.1783 14.091 33.2283 13.7551 33.3421 13.4386C33.4559 13.1221 33.6312 12.8313 33.858 12.5829C34.0747 12.3567 34.3365 12.1786 34.6264 12.0601C34.9163 11.9416 35.2279 11.8853 35.541 11.8949C35.853 11.8847 36.1635 11.9408 36.4522 12.0594C36.7409 12.178 37.0013 12.3564 37.216 12.5829C37.6691 13.0874 37.9042 13.7507 37.87 14.4279C37.9042 15.1051 37.6691 15.7684 37.216 16.2729C37.0013 16.4996 36.7411 16.6782 36.4524 16.797C36.1636 16.9157 35.853 16.9719 35.541 16.9619V16.9599Z" fill="white"/>
</g>
<defs>
<clipPath id="clip0">
<rect width="129" height="28" fill="white"/>
</clipPath>
</defs>
</svg>
